<svg width="32" height="32" viewBox="0 0 32 32" fill="none" xmlns="http://www.w3.org/2000/svg">
<path d="M25.6 25.6C26.4487 25.6 27.2626 25.9371 27.8627 26.5373C28.4629 27.1374 28.8 27.9513 28.8 28.8C28.8 29.6487 28.4629 30.4626 27.8627 31.0627C27.2626 31.6629 26.4487 32 25.6 32C24.7513 32 23.9374 31.6629 23.3373 31.0627C22.7371 30.4626 22.4 29.6487 22.4 28.8C22.4 27.024 23.824 25.6 25.6 25.6ZM0 0H5.232L6.736 3.2H30.4C30.8243 3.2 31.2313 3.36857 31.5314 3.66863C31.8314 3.96869 32 4.37565 32 4.8C32 5.072 31.92 5.344 31.808 5.6L26.08 15.952C25.536 16.928 24.48 17.6 23.28 17.6H11.36L9.92 20.208L9.872 20.4C9.872 20.5061 9.91414 20.6078 9.98916 20.6828C10.0642 20.7579 10.1659 20.8 10.272 20.8H28.8V24H9.6C8.75131 24 7.93737 23.6629 7.33726 23.0627C6.73714 22.4626 6.4 21.6487 6.4 20.8C6.4 20.24 6.544 19.712 6.784 19.264L8.96 15.344L3.2 3.2H0V0ZM9.6 25.6C10.4487 25.6 11.2626 25.9371 11.8627 26.5373C12.4629 27.1374 12.8 27.9513 12.8 28.8C12.8 29.6487 12.4629 30.4626 11.8627 31.0627C11.2626 31.6629 10.4487 32 9.6 32C8.75131 32 7.93737 31.6629 7.33726 31.0627C6.73714 30.4626 6.4 29.6487 6.4 28.8C6.4 27.024 7.824 25.6 9.6 25.6ZM24 14.4L28.448 6.4H8.224L12 14.4H24Z" fill="#BD00FF"/>
</svg>
