<svg width="29" height="26" viewBox="0 0 29 26" fill="none" xmlns="http://www.w3.org/2000/svg">
<path d="M2 5.00001L1 1.66667M2 5.00001H27.3333L23.3333 18.3333H6L2 5.00001Z" stroke="#BD00FF" stroke-width="2" stroke-linecap="round" stroke-linejoin="round"/>
<path d="M13.9893 11.6667V14.3333M11.3226 11.6667H13.9893H11.3226ZM16.656 11.6667H13.9893H16.656ZM13.9893 11.6667V9V11.6667Z" stroke="#BD00FF" stroke-width="2" stroke-linecap="round" stroke-linejoin="round"/>
<path d="M12.6666 23C12.6666 23.5304 12.4559 24.0391 12.0808 24.4142C11.7058 24.7893 11.1971 25 10.6666 25C10.1362 25 9.62748 24.7893 9.25241 24.4142C8.87734 24.0391 8.66663 23.5304 8.66663 23" stroke="#BD00FF" stroke-width="2" stroke-linecap="round" stroke-linejoin="round"/>
<path d="M20.6666 23C20.6666 23.5304 20.4559 24.0391 20.0808 24.4142C19.7058 24.7893 19.1971 25 18.6666 25C18.1362 25 17.6275 24.7893 17.2524 24.4142C16.8773 24.0391 16.6666 23.5304 16.6666 23" stroke="#BD00FF" stroke-width="2" stroke-linecap="round" stroke-linejoin="round"/>
</svg>
