<svg width="29" height="26" viewBox="0 0 29 26" fill="none" xmlns="http://www.w3.org/2000/svg">
<path d="M2 5.00001L1 1.66667M2 5.00001H27.3333L23.3333 18.3333H6L2 5.00001Z" stroke="#B3B3B3" stroke-width="2" stroke-linecap="round" stroke-linejoin="round"/>
<path d="M13.9894 11.6667V14.3333M11.3227 11.6667H13.9894H11.3227ZM16.656 11.6667H13.9894H16.656ZM13.9894 11.6667V9V11.6667Z" stroke="#B3B3B3" stroke-width="2" stroke-linecap="round" stroke-linejoin="round"/>
<path d="M12.6667 23C12.6667 23.5304 12.456 24.0391 12.0809 24.4142C11.7058 24.7893 11.1971 25 10.6667 25C10.1363 25 9.62755 24.7893 9.25247 24.4142C8.8774 24.0391 8.66669 23.5304 8.66669 23" stroke="#B3B3B3" stroke-width="2" stroke-linecap="round" stroke-linejoin="round"/>
<path d="M20.6667 23C20.6667 23.5304 20.456 24.0391 20.0809 24.4142C19.7058 24.7893 19.1971 25 18.6667 25C18.1363 25 17.6275 24.7893 17.2525 24.4142C16.8774 24.0391 16.6667 23.5304 16.6667 23" stroke="#B3B3B3" stroke-width="2" stroke-linecap="round" stroke-linejoin="round"/>
</svg>
