<svg width="265" height="59" viewBox="0 0 265 59" fill="none" xmlns="http://www.w3.org/2000/svg">
<circle cx="21.8148" cy="37.0852" r="21.8148" transform="rotate(90 21.8148 37.0852)" fill="#BD00FF"/>
<path d="M3.05176e-05 38.394L3.05176e-05 -2.67029e-05H6.54447L6.54447 38.394H3.05176e-05Z" fill="#BD00FF"/>
<circle cx="21.8148" cy="37.0852" r="17.7607" transform="rotate(90 21.8148 37.0852)" fill="white" stroke="#BD00FF" stroke-width="2"/>
<path d="M61.072 52.332C58.576 52.332 56.32 51.772 54.304 50.652C52.288 49.5 50.704 47.9 49.552 45.852C48.4 43.772 47.824 41.372 47.824 38.652C47.824 35.964 48.416 33.58 49.6 31.5C50.784 29.42 52.4 27.82 54.448 26.7C56.496 25.58 58.784 25.02 61.312 25.02C63.84 25.02 66.128 25.58 68.176 26.7C70.224 27.82 71.84 29.42 73.024 31.5C74.208 33.58 74.8 35.964 74.8 38.652C74.8 41.34 74.192 43.724 72.976 45.804C71.76 47.884 70.096 49.5 67.984 50.652C65.904 51.772 63.6 52.332 61.072 52.332ZM61.072 47.58C62.48 47.58 63.792 47.244 65.008 46.572C66.256 45.9 67.264 44.892 68.032 43.548C68.8 42.204 69.184 40.572 69.184 38.652C69.184 36.732 68.816 35.116 68.08 33.804C67.344 32.46 66.368 31.452 65.152 30.78C63.936 30.108 62.624 29.772 61.216 29.772C59.808 29.772 58.496 30.108 57.28 30.78C56.096 31.452 55.152 32.46 54.448 33.804C53.744 35.116 53.392 36.732 53.392 38.652C53.392 41.5 54.112 43.708 55.552 45.276C57.024 46.812 58.864 47.58 61.072 47.58ZM91.6814 52.332C89.1854 52.332 86.9294 51.772 84.9134 50.652C82.8974 49.5 81.3134 47.9 80.1614 45.852C79.0094 43.772 78.4334 41.372 78.4334 38.652C78.4334 35.964 79.0254 33.58 80.2094 31.5C81.3934 29.42 83.0094 27.82 85.0574 26.7C87.1054 25.58 89.3934 25.02 91.9214 25.02C94.4494 25.02 96.7374 25.58 98.7854 26.7C100.833 27.82 102.449 29.42 103.633 31.5C104.817 33.58 105.409 35.964 105.409 38.652C105.409 41.34 104.801 43.724 103.585 45.804C102.369 47.884 100.705 49.5 98.5934 50.652C96.5134 51.772 94.2094 52.332 91.6814 52.332ZM91.6814 47.58C93.0894 47.58 94.4014 47.244 95.6174 46.572C96.8654 45.9 97.8734 44.892 98.6414 43.548C99.4094 42.204 99.7934 40.572 99.7934 38.652C99.7934 36.732 99.4254 35.116 98.6894 33.804C97.9534 32.46 96.9774 31.452 95.7614 30.78C94.5454 30.108 93.2334 29.772 91.8254 29.772C90.4174 29.772 89.1054 30.108 87.8894 30.78C86.7054 31.452 85.7614 32.46 85.0574 33.804C84.3534 35.116 84.0014 36.732 84.0014 38.652C84.0014 41.5 84.7214 43.708 86.1614 45.276C87.6334 46.812 89.4734 47.58 91.6814 47.58ZM121.283 38.7L133.475 51.9H126.083L116.291 40.524V51.9H110.819V16.38H116.291V37.02L125.891 25.452H133.475L121.283 38.7ZM148.389 52.236C146.149 52.236 144.133 51.852 142.341 51.084C140.549 50.284 139.141 49.164 138.117 47.724C137.093 46.284 136.581 44.604 136.581 42.684H142.437C142.565 44.124 143.125 45.308 144.117 46.236C145.141 47.164 146.565 47.628 148.389 47.628C150.277 47.628 151.749 47.18 152.805 46.284C153.861 45.356 154.389 44.172 154.389 42.732C154.389 41.612 154.053 40.7 153.381 39.996C152.741 39.292 151.925 38.748 150.933 38.364C149.973 37.98 148.629 37.564 146.901 37.116C144.725 36.54 142.949 35.964 141.573 35.388C140.229 34.78 139.077 33.852 138.117 32.604C137.157 31.356 136.677 29.692 136.677 27.612C136.677 25.692 137.157 24.012 138.117 22.572C139.077 21.132 140.421 20.028 142.149 19.26C143.877 18.492 145.877 18.108 148.149 18.108C151.381 18.108 154.021 18.924 156.069 20.556C158.149 22.156 159.301 24.364 159.525 27.18H153.477C153.381 25.964 152.805 24.924 151.749 24.06C150.693 23.196 149.301 22.764 147.573 22.764C146.005 22.764 144.725 23.164 143.733 23.964C142.741 24.764 142.245 25.916 142.245 27.42C142.245 28.444 142.549 29.292 143.157 29.964C143.797 30.604 144.597 31.116 145.557 31.5C146.517 31.884 147.829 32.3 149.493 32.748C151.701 33.356 153.493 33.964 154.869 34.572C156.277 35.18 157.461 36.124 158.421 37.404C159.413 38.652 159.909 40.332 159.909 42.444C159.909 44.14 159.445 45.74 158.517 47.244C157.621 48.748 156.293 49.964 154.533 50.892C152.805 51.788 150.757 52.236 148.389 52.236ZM172.75 29.916V44.556C172.75 45.548 172.974 46.268 173.422 46.716C173.902 47.132 174.702 47.34 175.822 47.34H179.182V51.9H174.862C172.398 51.9 170.51 51.324 169.198 50.172C167.886 49.02 167.23 47.148 167.23 44.556V29.916H164.11V25.452H167.23V18.876H172.75V25.452H179.182V29.916H172.75ZM195.697 52.332C193.201 52.332 190.945 51.772 188.929 50.652C186.913 49.5 185.329 47.9 184.177 45.852C183.025 43.772 182.449 41.372 182.449 38.652C182.449 35.964 183.041 33.58 184.225 31.5C185.409 29.42 187.025 27.82 189.073 26.7C191.121 25.58 193.409 25.02 195.937 25.02C198.465 25.02 200.753 25.58 202.801 26.7C204.849 27.82 206.465 29.42 207.649 31.5C208.833 33.58 209.425 35.964 209.425 38.652C209.425 41.34 208.817 43.724 207.601 45.804C206.385 47.884 204.721 49.5 202.609 50.652C200.529 51.772 198.225 52.332 195.697 52.332ZM195.697 47.58C197.105 47.58 198.417 47.244 199.633 46.572C200.881 45.9 201.889 44.892 202.657 43.548C203.425 42.204 203.809 40.572 203.809 38.652C203.809 36.732 203.441 35.116 202.705 33.804C201.969 32.46 200.993 31.452 199.777 30.78C198.561 30.108 197.249 29.772 195.841 29.772C194.433 29.772 193.121 30.108 191.905 30.78C190.721 31.452 189.777 32.46 189.073 33.804C188.369 35.116 188.017 36.732 188.017 38.652C188.017 41.5 188.737 43.708 190.177 45.276C191.649 46.812 193.489 47.58 195.697 47.58ZM220.306 29.292C221.106 27.948 222.162 26.908 223.474 26.172C224.818 25.404 226.402 25.02 228.226 25.02V30.684H226.834C224.69 30.684 223.058 31.228 221.938 32.316C220.85 33.404 220.306 35.292 220.306 37.98V51.9H214.834V25.452H220.306V29.292ZM257.496 38.028C257.496 39.02 257.432 39.916 257.304 40.716H237.096C237.256 42.828 238.04 44.524 239.448 45.804C240.856 47.084 242.584 47.724 244.632 47.724C247.576 47.724 249.656 46.492 250.872 44.028H256.776C255.976 46.46 254.52 48.46 252.408 50.028C250.328 51.564 247.736 52.332 244.632 52.332C242.104 52.332 239.832 51.772 237.816 50.652C235.832 49.5 234.264 47.9 233.112 45.852C231.992 43.772 231.432 41.372 231.432 38.652C231.432 35.932 231.976 33.548 233.064 31.5C234.184 29.42 235.736 27.82 237.72 26.7C239.736 25.58 242.04 25.02 244.632 25.02C247.128 25.02 249.352 25.564 251.304 26.652C253.256 27.74 254.776 29.276 255.864 31.26C256.952 33.212 257.496 35.468 257.496 38.028ZM251.784 36.3C251.752 34.284 251.032 32.668 249.624 31.452C248.216 30.236 246.472 29.628 244.392 29.628C242.504 29.628 240.888 30.236 239.544 31.452C238.2 32.636 237.4 34.252 237.144 36.3H251.784Z" fill="#BD00FF"/>
</svg>
