<svg width="22" height="26" viewBox="0 0 22 26" fill="none" xmlns="http://www.w3.org/2000/svg">
<path d="M6.99998 3.66667C6.64636 3.66667 6.30722 3.80714 6.05717 4.05719C5.80712 4.30724 5.66665 4.64638 5.66665 5C5.66665 5.35362 5.80712 5.69276 6.05717 5.94281C6.30722 6.19286 6.64636 6.33334 6.99998 6.33334C7.3536 6.33334 7.69274 6.19286 7.94279 5.94281C8.19284 5.69276 8.33331 5.35362 8.33331 5C8.33331 4.64638 8.19284 4.30724 7.94279 4.05719C7.69274 3.80714 7.3536 3.66667 6.99998 3.66667ZM3.22665 3.66667C3.50212 2.88596 4.01297 2.20991 4.68878 1.73172C5.36459 1.25353 6.1721 0.996735 6.99998 0.996735C7.82786 0.996735 8.63537 1.25353 9.31118 1.73172C9.98699 2.20991 10.4978 2.88596 10.7733 3.66667H20.3333C20.6869 3.66667 21.0261 3.80714 21.2761 4.05719C21.5262 4.30724 21.6666 4.64638 21.6666 5C21.6666 5.35362 21.5262 5.69276 21.2761 5.94281C21.0261 6.19286 20.6869 6.33334 20.3333 6.33334H10.7733C10.4978 7.11405 9.98699 7.79009 9.31118 8.26828C8.63537 8.74648 7.82786 9.00327 6.99998 9.00327C6.1721 9.00327 5.36459 8.74648 4.68878 8.26828C4.01297 7.79009 3.50212 7.11405 3.22665 6.33334H1.66665C1.31302 6.33334 0.973886 6.19286 0.723838 5.94281C0.473789 5.69276 0.333313 5.35362 0.333313 5C0.333313 4.64638 0.473789 4.30724 0.723838 4.05719C0.973886 3.80714 1.31302 3.66667 1.66665 3.66667H3.22665ZM15 11.6667C14.6464 11.6667 14.3072 11.8071 14.0572 12.0572C13.8071 12.3072 13.6666 12.6464 13.6666 13C13.6666 13.3536 13.8071 13.6928 14.0572 13.9428C14.3072 14.1929 14.6464 14.3333 15 14.3333C15.3536 14.3333 15.6927 14.1929 15.9428 13.9428C16.1928 13.6928 16.3333 13.3536 16.3333 13C16.3333 12.6464 16.1928 12.3072 15.9428 12.0572C15.6927 11.8071 15.3536 11.6667 15 11.6667ZM11.2266 11.6667C11.5021 10.886 12.013 10.2099 12.6888 9.73172C13.3646 9.25353 14.1721 8.99673 15 8.99673C15.8279 8.99673 16.6354 9.25353 17.3112 9.73172C17.987 10.2099 18.4978 10.886 18.7733 11.6667H20.3333C20.6869 11.6667 21.0261 11.8071 21.2761 12.0572C21.5262 12.3072 21.6666 12.6464 21.6666 13C21.6666 13.3536 21.5262 13.6928 21.2761 13.9428C21.0261 14.1929 20.6869 14.3333 20.3333 14.3333H18.7733C18.4978 15.114 17.987 15.7901 17.3112 16.2683C16.6354 16.7465 15.8279 17.0033 15 17.0033C14.1721 17.0033 13.3646 16.7465 12.6888 16.2683C12.013 15.7901 11.5021 15.114 11.2266 14.3333H1.66665C1.31302 14.3333 0.973886 14.1929 0.723838 13.9428C0.473789 13.6928 0.333313 13.3536 0.333313 13C0.333313 12.6464 0.473789 12.3072 0.723838 12.0572C0.973886 11.8071 1.31302 11.6667 1.66665 11.6667H11.2266ZM6.99998 19.6667C6.64636 19.6667 6.30722 19.8071 6.05717 20.0572C5.80712 20.3072 5.66665 20.6464 5.66665 21C5.66665 21.3536 5.80712 21.6928 6.05717 21.9428C6.30722 22.1929 6.64636 22.3333 6.99998 22.3333C7.3536 22.3333 7.69274 22.1929 7.94279 21.9428C8.19284 21.6928 8.33331 21.3536 8.33331 21C8.33331 20.6464 8.19284 20.3072 7.94279 20.0572C7.69274 19.8071 7.3536 19.6667 6.99998 19.6667ZM3.22665 19.6667C3.50212 18.886 4.01297 18.2099 4.68878 17.7317C5.36459 17.2535 6.1721 16.9967 6.99998 16.9967C7.82786 16.9967 8.63537 17.2535 9.31118 17.7317C9.98699 18.2099 10.4978 18.886 10.7733 19.6667H20.3333C20.6869 19.6667 21.0261 19.8071 21.2761 20.0572C21.5262 20.3072 21.6666 20.6464 21.6666 21C21.6666 21.3536 21.5262 21.6928 21.2761 21.9428C21.0261 22.1929 20.6869 22.3333 20.3333 22.3333H10.7733C10.4978 23.114 9.98699 23.7901 9.31118 24.2683C8.63537 24.7465 7.82786 25.0033 6.99998 25.0033C6.1721 25.0033 5.36459 24.7465 4.68878 24.2683C4.01297 23.7901 3.50212 23.114 3.22665 22.3333H1.66665C1.31302 22.3333 0.973886 22.1929 0.723838 21.9428C0.473789 21.6928 0.333313 21.3536 0.333313 21C0.333313 20.6464 0.473789 20.3072 0.723838 20.0572C0.973886 19.8071 1.31302 19.6667 1.66665 19.6667H3.22665Z" fill="#505050"/>
</svg>
