<svg width="263" height="235" viewBox="0 0 263 235" fill="none" xmlns="http://www.w3.org/2000/svg">
<circle cx="50" cy="85" r="50" transform="rotate(90 50 85)" fill="#BD00FF"/>
<path d="M0 88L0 0H15L15 88H0Z" fill="#BD00FF"/>
<mask id="mask0" mask-type="alpha" maskUnits="userSpaceOnUse" x="7" y="42" width="86" height="86">
<circle cx="50" cy="85" r="43" transform="rotate(90 50 85)" fill="white"/>
<circle cx="50" cy="85" r="43" transform="rotate(90 50 85)" stroke="#BD00FF"/>
</mask>
<g mask="url(#mask0)">
</g>
<path d="M30.52 164.152V174.232C30.52 175.24 30.768 176.016 31.264 176.56C31.76 177.104 32.488 177.376 33.448 177.376C34.408 177.376 35.144 177.104 35.656 176.56C36.168 176.016 36.424 175.24 36.424 174.232V164.152H40.528V174.208C40.528 175.712 40.208 176.984 39.568 178.024C38.928 179.064 38.064 179.848 36.976 180.376C35.904 180.904 34.704 181.168 33.376 181.168C32.048 181.168 30.856 180.912 29.8 180.4C28.76 179.872 27.936 179.088 27.328 178.048C26.72 176.992 26.416 175.712 26.416 174.208V164.152H30.52ZM48.8579 181.192C47.6899 181.192 46.6499 180.992 45.7379 180.592C44.8259 180.192 44.1059 179.648 43.5779 178.96C43.0499 178.256 42.7539 177.472 42.6899 176.608H46.7459C46.7939 177.072 47.0099 177.448 47.3939 177.736C47.7779 178.024 48.2499 178.168 48.8099 178.168C49.3219 178.168 49.7139 178.072 49.9859 177.88C50.2739 177.672 50.4179 177.408 50.4179 177.088C50.4179 176.704 50.2179 176.424 49.8179 176.248C49.4179 176.056 48.7699 175.848 47.8739 175.624C46.9139 175.4 46.1139 175.168 45.4739 174.928C44.8339 174.672 44.2819 174.28 43.8179 173.752C43.3539 173.208 43.1219 172.48 43.1219 171.568C43.1219 170.8 43.3299 170.104 43.7459 169.48C44.1779 168.84 44.8019 168.336 45.6179 167.968C46.4499 167.6 47.4339 167.416 48.5699 167.416C50.2499 167.416 51.5699 167.832 52.5299 168.664C53.5059 169.496 54.0659 170.6 54.2099 171.976H50.4179C50.3539 171.512 50.1459 171.144 49.7939 170.872C49.4579 170.6 49.0099 170.464 48.4499 170.464C47.9699 170.464 47.6019 170.56 47.3459 170.752C47.0899 170.928 46.9619 171.176 46.9619 171.496C46.9619 171.88 47.1619 172.168 47.5619 172.36C47.9779 172.552 48.6179 172.744 49.4819 172.936C50.4739 173.192 51.2819 173.448 51.9059 173.704C52.5299 173.944 53.0739 174.344 53.5379 174.904C54.0179 175.448 54.2659 176.184 54.2819 177.112C54.2819 177.896 54.0579 178.6 53.6099 179.224C53.1779 179.832 52.5459 180.312 51.7139 180.664C50.8979 181.016 49.9459 181.192 48.8579 181.192ZM69.4167 174.088C69.4167 174.472 69.3927 174.872 69.3447 175.288H60.0567C60.1207 176.12 60.3847 176.76 60.8487 177.208C61.3287 177.64 61.9127 177.856 62.6007 177.856C63.6247 177.856 64.3367 177.424 64.7367 176.56H69.1047C68.8807 177.44 68.4727 178.232 67.8807 178.936C67.3047 179.64 66.5767 180.192 65.6967 180.592C64.8167 180.992 63.8327 181.192 62.7447 181.192C61.4327 181.192 60.2647 180.912 59.2407 180.352C58.2167 179.792 57.4167 178.992 56.8407 177.952C56.2647 176.912 55.9767 175.696 55.9767 174.304C55.9767 172.912 56.2567 171.696 56.8167 170.656C57.3927 169.616 58.1927 168.816 59.2167 168.256C60.2407 167.696 61.4167 167.416 62.7447 167.416C64.0407 167.416 65.1927 167.688 66.2007 168.232C67.2087 168.776 67.9927 169.552 68.5527 170.56C69.1287 171.568 69.4167 172.744 69.4167 174.088ZM65.2167 173.008C65.2167 172.304 64.9767 171.744 64.4967 171.328C64.0167 170.912 63.4167 170.704 62.6967 170.704C62.0087 170.704 61.4247 170.904 60.9447 171.304C60.4807 171.704 60.1927 172.272 60.0807 173.008H65.2167ZM75.6858 169.84C76.1658 169.104 76.7658 168.528 77.4858 168.112C78.2058 167.68 79.0058 167.464 79.8858 167.464V171.808H78.7578C77.7338 171.808 76.9658 172.032 76.4538 172.48C75.9418 172.912 75.6858 173.68 75.6858 174.784V181H71.5818V167.608H75.6858V169.84ZM102.005 181H97.9013L91.0373 170.608V181H86.9333V164.152H91.0373L97.9013 174.592V164.152H102.005V181ZM104.164 174.28C104.164 172.904 104.42 171.696 104.932 170.656C105.46 169.616 106.172 168.816 107.068 168.256C107.964 167.696 108.964 167.416 110.068 167.416C111.012 167.416 111.836 167.608 112.54 167.992C113.26 168.376 113.812 168.88 114.196 169.504V167.608H118.3V181H114.196V179.104C113.796 179.728 113.236 180.232 112.516 180.616C111.812 181 110.988 181.192 110.044 181.192C108.956 181.192 107.964 180.912 107.068 180.352C106.172 179.776 105.46 178.968 104.932 177.928C104.42 176.872 104.164 175.656 104.164 174.28ZM114.196 174.304C114.196 173.28 113.908 172.472 113.332 171.88C112.772 171.288 112.084 170.992 111.268 170.992C110.452 170.992 109.756 171.288 109.18 171.88C108.62 172.456 108.34 173.256 108.34 174.28C108.34 175.304 108.62 176.12 109.18 176.728C109.756 177.32 110.452 177.616 111.268 177.616C112.084 177.616 112.772 177.32 113.332 176.728C113.908 176.136 114.196 175.328 114.196 174.304ZM138.357 167.464C140.021 167.464 141.341 167.968 142.317 168.976C143.309 169.984 143.805 171.384 143.805 173.176V181H139.725V173.728C139.725 172.864 139.493 172.2 139.029 171.736C138.581 171.256 137.957 171.016 137.157 171.016C136.357 171.016 135.725 171.256 135.261 171.736C134.813 172.2 134.589 172.864 134.589 173.728V181H130.509V173.728C130.509 172.864 130.277 172.2 129.813 171.736C129.365 171.256 128.741 171.016 127.941 171.016C127.141 171.016 126.509 171.256 126.045 171.736C125.597 172.2 125.373 172.864 125.373 173.728V181H121.269V167.608H125.373V169.288C125.789 168.728 126.333 168.288 127.005 167.968C127.677 167.632 128.437 167.464 129.285 167.464C130.293 167.464 131.189 167.68 131.973 168.112C132.773 168.544 133.397 169.16 133.845 169.96C134.309 169.224 134.941 168.624 135.741 168.16C136.541 167.696 137.413 167.464 138.357 167.464ZM159.299 174.088C159.299 174.472 159.276 174.872 159.228 175.288H149.94C150.004 176.12 150.268 176.76 150.732 177.208C151.212 177.64 151.796 177.856 152.484 177.856C153.508 177.856 154.22 177.424 154.62 176.56H158.988C158.764 177.44 158.356 178.232 157.764 178.936C157.188 179.64 156.46 180.192 155.58 180.592C154.7 180.992 153.716 181.192 152.628 181.192C151.316 181.192 150.148 180.912 149.124 180.352C148.1 179.792 147.3 178.992 146.724 177.952C146.148 176.912 145.86 175.696 145.86 174.304C145.86 172.912 146.14 171.696 146.7 170.656C147.276 169.616 148.076 168.816 149.1 168.256C150.124 167.696 151.3 167.416 152.628 167.416C153.924 167.416 155.076 167.688 156.084 168.232C157.092 168.776 157.876 169.552 158.436 170.56C159.012 171.568 159.299 172.744 159.299 174.088ZM155.1 173.008C155.1 172.304 154.86 171.744 154.38 171.328C153.9 170.912 153.3 170.704 152.58 170.704C151.892 170.704 151.308 170.904 150.828 171.304C150.364 171.704 150.076 172.272 149.964 173.008H155.1Z" fill="#6D6D6D"/>
<path d="M31.357 203.985H27.405L26.677 206H25.429L28.705 196.991H30.07L33.333 206H32.085L31.357 203.985ZM31.019 203.023L29.381 198.447L27.743 203.023H31.019ZM34.3188 202.412C34.3188 201.684 34.4661 201.047 34.7608 200.501C35.0554 199.946 35.4584 199.517 35.9698 199.214C36.4898 198.911 37.0704 198.759 37.7118 198.759C38.2664 198.759 38.7821 198.889 39.2588 199.149C39.7354 199.4 40.0994 199.734 40.3508 200.15V196.38H41.5468V206H40.3508V204.661C40.1168 205.086 39.7701 205.437 39.3108 205.714C38.8514 205.983 38.3141 206.117 37.6988 206.117C37.0661 206.117 36.4898 205.961 35.9698 205.649C35.4584 205.337 35.0554 204.899 34.7608 204.336C34.4661 203.773 34.3188 203.131 34.3188 202.412ZM40.3508 202.425C40.3508 201.888 40.2424 201.42 40.0258 201.021C39.8091 200.622 39.5144 200.319 39.1418 200.111C38.7778 199.894 38.3748 199.786 37.9328 199.786C37.4908 199.786 37.0878 199.89 36.7238 200.098C36.3598 200.306 36.0694 200.609 35.8528 201.008C35.6361 201.407 35.5278 201.875 35.5278 202.412C35.5278 202.958 35.6361 203.435 35.8528 203.842C36.0694 204.241 36.3598 204.548 36.7238 204.765C37.0878 204.973 37.4908 205.077 37.9328 205.077C38.3748 205.077 38.7778 204.973 39.1418 204.765C39.5144 204.548 39.8091 204.241 40.0258 203.842C40.2424 203.435 40.3508 202.962 40.3508 202.425ZM43.1039 202.412C43.1039 201.684 43.2513 201.047 43.5459 200.501C43.8406 199.946 44.2436 199.517 44.7549 199.214C45.2749 198.911 45.8556 198.759 46.4969 198.759C47.0516 198.759 47.5673 198.889 48.0439 199.149C48.5206 199.4 48.8846 199.734 49.1359 200.15V196.38H50.3319V206H49.1359V204.661C48.9019 205.086 48.5553 205.437 48.0959 205.714C47.6366 205.983 47.0993 206.117 46.4839 206.117C45.8513 206.117 45.2749 205.961 44.7549 205.649C44.2436 205.337 43.8406 204.899 43.5459 204.336C43.2513 203.773 43.1039 203.131 43.1039 202.412ZM49.1359 202.425C49.1359 201.888 49.0276 201.42 48.8109 201.021C48.5943 200.622 48.2996 200.319 47.9269 200.111C47.5629 199.894 47.1599 199.786 46.7179 199.786C46.2759 199.786 45.8729 199.89 45.5089 200.098C45.1449 200.306 44.8546 200.609 44.6379 201.008C44.4213 201.407 44.3129 201.875 44.3129 202.412C44.3129 202.958 44.4213 203.435 44.6379 203.842C44.8546 204.241 45.1449 204.548 45.5089 204.765C45.8729 204.973 46.2759 205.077 46.7179 205.077C47.1599 205.077 47.5629 204.973 47.9269 204.765C48.2996 204.548 48.5943 204.241 48.8109 203.842C49.0276 203.435 49.1359 202.962 49.1359 202.425ZM53.5141 200.033C53.7221 199.626 54.0167 199.309 54.3981 199.084C54.7881 198.859 55.2604 198.746 55.8151 198.746V199.968H55.5031C54.1771 199.968 53.5141 200.687 53.5141 202.126V206H52.3311V198.876H53.5141V200.033ZM63.6807 202.165C63.6807 202.39 63.6677 202.629 63.6417 202.88H57.9477C57.991 203.582 58.2294 204.132 58.6627 204.531C59.1047 204.921 59.6377 205.116 60.2617 205.116C60.773 205.116 61.1977 204.999 61.5357 204.765C61.8824 204.522 62.125 204.202 62.2637 203.803H63.5377C63.347 204.488 62.9657 205.047 62.3937 205.48C61.8217 205.905 61.111 206.117 60.2617 206.117C59.5857 206.117 58.979 205.965 58.4417 205.662C57.913 205.359 57.497 204.93 57.1937 204.375C56.8904 203.812 56.7387 203.162 56.7387 202.425C56.7387 201.688 56.886 201.043 57.1807 200.488C57.4754 199.933 57.887 199.509 58.4157 199.214C58.953 198.911 59.5684 198.759 60.2617 198.759C60.9377 198.759 61.5357 198.906 62.0557 199.201C62.5757 199.496 62.9744 199.903 63.2517 200.423C63.5377 200.934 63.6807 201.515 63.6807 202.165ZM62.4587 201.918C62.4587 201.467 62.359 201.082 62.1597 200.761C61.9604 200.432 61.6874 200.185 61.3407 200.02C61.0027 199.847 60.6257 199.76 60.2097 199.76C59.6117 199.76 59.1004 199.951 58.6757 200.332C58.2597 200.713 58.0214 201.242 57.9607 201.918H62.4587ZM67.7642 206.117C67.2182 206.117 66.7285 206.026 66.2952 205.844C65.8619 205.653 65.5195 205.393 65.2682 205.064C65.0169 204.726 64.8782 204.34 64.8522 203.907H66.0742C66.1089 204.262 66.2735 204.553 66.5682 204.778C66.8715 205.003 67.2659 205.116 67.7512 205.116C68.2019 205.116 68.5572 205.016 68.8172 204.817C69.0772 204.618 69.2072 204.366 69.2072 204.063C69.2072 203.751 69.0685 203.521 68.7912 203.374C68.5139 203.218 68.0849 203.066 67.5042 202.919C66.9755 202.78 66.5422 202.642 66.2042 202.503C65.8749 202.356 65.5889 202.143 65.3462 201.866C65.1122 201.58 64.9952 201.207 64.9952 200.748C64.9952 200.384 65.1035 200.05 65.3202 199.747C65.5369 199.444 65.8445 199.205 66.2432 199.032C66.6419 198.85 67.0969 198.759 67.6082 198.759C68.3969 198.759 69.0339 198.958 69.5192 199.357C70.0045 199.756 70.2645 200.302 70.2992 200.995H69.1162C69.0902 200.622 68.9385 200.323 68.6612 200.098C68.3925 199.873 68.0285 199.76 67.5692 199.76C67.1445 199.76 66.8065 199.851 66.5552 200.033C66.3039 200.215 66.1782 200.453 66.1782 200.748C66.1782 200.982 66.2519 201.177 66.3992 201.333C66.5552 201.48 66.7459 201.602 66.9712 201.697C67.2052 201.784 67.5259 201.883 67.9332 201.996C68.4445 202.135 68.8605 202.273 69.1812 202.412C69.5019 202.542 69.7749 202.741 70.0002 203.01C70.2342 203.279 70.3555 203.63 70.3642 204.063C70.3642 204.453 70.2559 204.804 70.0392 205.116C69.8225 205.428 69.5149 205.675 69.1162 205.857C68.7262 206.03 68.2755 206.117 67.7642 206.117ZM74.5562 206.117C74.0102 206.117 73.5205 206.026 73.0872 205.844C72.6539 205.653 72.3115 205.393 72.0602 205.064C71.8089 204.726 71.6702 204.34 71.6442 203.907H72.8662C72.9009 204.262 73.0655 204.553 73.3602 204.778C73.6635 205.003 74.0579 205.116 74.5432 205.116C74.9939 205.116 75.3492 205.016 75.6092 204.817C75.8692 204.618 75.9992 204.366 75.9992 204.063C75.9992 203.751 75.8605 203.521 75.5832 203.374C75.3059 203.218 74.8769 203.066 74.2962 202.919C73.7675 202.78 73.3342 202.642 72.9962 202.503C72.6669 202.356 72.3809 202.143 72.1382 201.866C71.9042 201.58 71.7872 201.207 71.7872 200.748C71.7872 200.384 71.8955 200.05 72.1122 199.747C72.3289 199.444 72.6365 199.205 73.0352 199.032C73.4339 198.85 73.8889 198.759 74.4002 198.759C75.1889 198.759 75.8259 198.958 76.3112 199.357C76.7965 199.756 77.0565 200.302 77.0912 200.995H75.9082C75.8822 200.622 75.7305 200.323 75.4532 200.098C75.1845 199.873 74.8205 199.76 74.3612 199.76C73.9365 199.76 73.5985 199.851 73.3472 200.033C73.0959 200.215 72.9702 200.453 72.9702 200.748C72.9702 200.982 73.0439 201.177 73.1912 201.333C73.3472 201.48 73.5379 201.602 73.7632 201.697C73.9972 201.784 74.3179 201.883 74.7252 201.996C75.2365 202.135 75.6525 202.273 75.9732 202.412C76.2939 202.542 76.5669 202.741 76.7922 203.01C77.0262 203.279 77.1475 203.63 77.1562 204.063C77.1562 204.453 77.0479 204.804 76.8312 205.116C76.6145 205.428 76.3069 205.675 75.9082 205.857C75.5182 206.03 75.0675 206.117 74.5562 206.117Z" fill="black"/>
<path d="M25.559 224.463C25.559 223.579 25.7583 222.786 26.157 222.084C26.5557 221.373 27.0973 220.819 27.782 220.42C28.4753 220.021 29.2423 219.822 30.083 219.822C31.071 219.822 31.9333 220.06 32.67 220.537C33.4067 221.014 33.944 221.69 34.282 222.565H32.865C32.6137 222.019 32.2497 221.599 31.773 221.304C31.305 221.009 30.7417 220.862 30.083 220.862C29.4503 220.862 28.8827 221.009 28.38 221.304C27.8773 221.599 27.483 222.019 27.197 222.565C26.911 223.102 26.768 223.735 26.768 224.463C26.768 225.182 26.911 225.815 27.197 226.361C27.483 226.898 27.8773 227.314 28.38 227.609C28.8827 227.904 29.4503 228.051 30.083 228.051C30.7417 228.051 31.305 227.908 31.773 227.622C32.2497 227.327 32.6137 226.907 32.865 226.361H34.282C33.944 227.228 33.4067 227.899 32.67 228.376C31.9333 228.844 31.071 229.078 30.083 229.078C29.2423 229.078 28.4753 228.883 27.782 228.493C27.0973 228.094 26.5557 227.544 26.157 226.842C25.7583 226.14 25.559 225.347 25.559 224.463ZM39.15 229.117C38.4827 229.117 37.876 228.965 37.33 228.662C36.7927 228.359 36.368 227.93 36.056 227.375C35.7527 226.812 35.601 226.162 35.601 225.425C35.601 224.697 35.757 224.056 36.069 223.501C36.3897 222.938 36.823 222.509 37.369 222.214C37.915 221.911 38.526 221.759 39.202 221.759C39.878 221.759 40.489 221.911 41.035 222.214C41.581 222.509 42.01 222.933 42.322 223.488C42.6427 224.043 42.803 224.688 42.803 225.425C42.803 226.162 42.6383 226.812 42.309 227.375C41.9883 227.93 41.5507 228.359 40.996 228.662C40.4413 228.965 39.826 229.117 39.15 229.117ZM39.15 228.077C39.5747 228.077 39.9733 227.977 40.346 227.778C40.7187 227.579 41.0177 227.28 41.243 226.881C41.477 226.482 41.594 225.997 41.594 225.425C41.594 224.853 41.4813 224.368 41.256 223.969C41.0307 223.57 40.736 223.276 40.372 223.085C40.008 222.886 39.6137 222.786 39.189 222.786C38.7557 222.786 38.357 222.886 37.993 223.085C37.6377 223.276 37.3517 223.57 37.135 223.969C36.9183 224.368 36.81 224.853 36.81 225.425C36.81 226.006 36.914 226.495 37.122 226.894C37.3387 227.293 37.6247 227.592 37.98 227.791C38.3353 227.982 38.7253 228.077 39.15 228.077ZM47.8294 221.746C48.6961 221.746 49.3981 222.01 49.9354 222.539C50.4728 223.059 50.7414 223.813 50.7414 224.801V229H49.5714V224.97C49.5714 224.259 49.3938 223.718 49.0384 223.345C48.6831 222.964 48.1978 222.773 47.5824 222.773C46.9584 222.773 46.4601 222.968 46.0874 223.358C45.7234 223.748 45.5414 224.316 45.5414 225.061V229H44.3584V221.876H45.5414V222.89C45.7754 222.526 46.0918 222.244 46.4904 222.045C46.8978 221.846 47.3441 221.746 47.8294 221.746ZM54.1169 222.851V227.05C54.1169 227.397 54.1905 227.644 54.3379 227.791C54.4852 227.93 54.7409 227.999 55.1049 227.999H55.9759V229H54.9099C54.2512 229 53.7572 228.848 53.4279 228.545C53.0985 228.242 52.9339 227.743 52.9339 227.05V222.851H52.0109V221.876H52.9339V220.082H54.1169V221.876H55.9759V222.851H54.1169ZM56.9672 225.412C56.9672 224.684 57.1145 224.047 57.4092 223.501C57.7039 222.946 58.1069 222.517 58.6182 222.214C59.1382 221.911 59.7145 221.759 60.3472 221.759C60.9712 221.759 61.5129 221.893 61.9722 222.162C62.4315 222.431 62.7739 222.769 62.9992 223.176V221.876H64.1952V229H62.9992V227.674C62.7652 228.09 62.4142 228.437 61.9462 228.714C61.4869 228.983 60.9495 229.117 60.3342 229.117C59.7015 229.117 59.1295 228.961 58.6182 228.649C58.1069 228.337 57.7039 227.899 57.4092 227.336C57.1145 226.773 56.9672 226.131 56.9672 225.412ZM62.9992 225.425C62.9992 224.888 62.8909 224.42 62.6742 224.021C62.4575 223.622 62.1629 223.319 61.7902 223.111C61.4262 222.894 61.0232 222.786 60.5812 222.786C60.1392 222.786 59.7362 222.89 59.3722 223.098C59.0082 223.306 58.7179 223.609 58.5012 224.008C58.2845 224.407 58.1762 224.875 58.1762 225.412C58.1762 225.958 58.2845 226.435 58.5012 226.842C58.7179 227.241 59.0082 227.548 59.3722 227.765C59.7362 227.973 60.1392 228.077 60.5812 228.077C61.0232 228.077 61.4262 227.973 61.7902 227.765C62.1629 227.548 62.4575 227.241 62.6742 226.842C62.8909 226.435 62.9992 225.962 62.9992 225.425ZM65.7524 225.425C65.7524 224.688 65.8997 224.047 66.1944 223.501C66.489 222.946 66.8964 222.517 67.4164 222.214C67.945 221.911 68.5474 221.759 69.2234 221.759C70.0987 221.759 70.818 221.971 71.3814 222.396C71.9534 222.821 72.3304 223.41 72.5124 224.164H71.2384C71.117 223.731 70.8787 223.388 70.5234 223.137C70.1767 222.886 69.7434 222.76 69.2234 222.76C68.5474 222.76 68.0014 222.994 67.5854 223.462C67.1694 223.921 66.9614 224.576 66.9614 225.425C66.9614 226.283 67.1694 226.946 67.5854 227.414C68.0014 227.882 68.5474 228.116 69.2234 228.116C69.7434 228.116 70.1767 227.995 70.5234 227.752C70.87 227.509 71.1084 227.163 71.2384 226.712H72.5124C72.3217 227.44 71.9404 228.025 71.3684 228.467C70.7964 228.9 70.0814 229.117 69.2234 229.117C68.5474 229.117 67.945 228.965 67.4164 228.662C66.8964 228.359 66.489 227.93 66.1944 227.375C65.8997 226.82 65.7524 226.17 65.7524 225.425ZM75.5338 222.851V227.05C75.5338 227.397 75.6075 227.644 75.7548 227.791C75.9022 227.93 76.1578 227.999 76.5218 227.999H77.3928V229H76.3268C75.6682 229 75.1742 228.848 74.8448 228.545C74.5155 228.242 74.3508 227.743 74.3508 227.05V222.851H73.4278V221.876H74.3508V220.082H75.5338V221.876H77.3928V222.851H75.5338ZM85.113 219.939C86.101 219.939 86.9547 220.125 87.674 220.498C88.402 220.862 88.9567 221.386 89.338 222.071C89.728 222.756 89.923 223.562 89.923 224.489C89.923 225.416 89.728 226.222 89.338 226.907C88.9567 227.583 88.402 228.103 87.674 228.467C86.9547 228.822 86.101 229 85.113 229H82.292V219.939H85.113ZM85.113 228.025C86.283 228.025 87.1757 227.717 87.791 227.102C88.4063 226.478 88.714 225.607 88.714 224.489C88.714 223.362 88.402 222.483 87.778 221.85C87.1627 221.217 86.2743 220.901 85.113 220.901H83.475V228.025H85.113ZM97.9834 225.165C97.9834 225.39 97.9704 225.629 97.9444 225.88H92.2504C92.2938 226.582 92.5321 227.132 92.9654 227.531C93.4074 227.921 93.9404 228.116 94.5644 228.116C95.0758 228.116 95.5004 227.999 95.8384 227.765C96.1851 227.522 96.4278 227.202 96.5664 226.803H97.8404C97.6498 227.488 97.2684 228.047 96.6964 228.48C96.1244 228.905 95.4138 229.117 94.5644 229.117C93.8884 229.117 93.2818 228.965 92.7444 228.662C92.2158 228.359 91.7998 227.93 91.4964 227.375C91.1931 226.812 91.0414 226.162 91.0414 225.425C91.0414 224.688 91.1888 224.043 91.4834 223.488C91.7781 222.933 92.1898 222.509 92.7184 222.214C93.2558 221.911 93.8711 221.759 94.5644 221.759C95.2404 221.759 95.8384 221.906 96.3584 222.201C96.8784 222.496 97.2771 222.903 97.5544 223.423C97.8404 223.934 97.9834 224.515 97.9834 225.165ZM96.7614 224.918C96.7614 224.467 96.6618 224.082 96.4624 223.761C96.2631 223.432 95.9901 223.185 95.6434 223.02C95.3054 222.847 94.9284 222.76 94.5124 222.76C93.9144 222.76 93.4031 222.951 92.9784 223.332C92.5624 223.713 92.3241 224.242 92.2634 224.918H96.7614ZM100.988 222.851V227.05C100.988 227.397 101.062 227.644 101.209 227.791C101.356 227.93 101.612 227.999 101.976 227.999H102.847V229H101.781C101.122 229 100.628 228.848 100.299 228.545C99.9696 228.242 99.8049 227.743 99.8049 227.05V222.851H98.8819V221.876H99.8049V220.082H100.988V221.876H102.847V222.851H100.988ZM103.838 225.412C103.838 224.684 103.986 224.047 104.28 223.501C104.575 222.946 104.978 222.517 105.489 222.214C106.009 221.911 106.586 221.759 107.218 221.759C107.842 221.759 108.384 221.893 108.843 222.162C109.303 222.431 109.645 222.769 109.87 223.176V221.876H111.066V229H109.87V227.674C109.636 228.09 109.285 228.437 108.817 228.714C108.358 228.983 107.821 229.117 107.205 229.117C106.573 229.117 106.001 228.961 105.489 228.649C104.978 228.337 104.575 227.899 104.28 227.336C103.986 226.773 103.838 226.131 103.838 225.412ZM109.87 225.425C109.87 224.888 109.762 224.42 109.545 224.021C109.329 223.622 109.034 223.319 108.661 223.111C108.297 222.894 107.894 222.786 107.452 222.786C107.01 222.786 106.607 222.89 106.243 223.098C105.879 223.306 105.589 223.609 105.372 224.008C105.156 224.407 105.047 224.875 105.047 225.412C105.047 225.958 105.156 226.435 105.372 226.842C105.589 227.241 105.879 227.548 106.243 227.765C106.607 227.973 107.01 228.077 107.452 228.077C107.894 228.077 108.297 227.973 108.661 227.765C109.034 227.548 109.329 227.241 109.545 226.842C109.762 226.435 109.87 225.962 109.87 225.425ZM113.676 220.719C113.451 220.719 113.26 220.641 113.104 220.485C112.948 220.329 112.87 220.138 112.87 219.913C112.87 219.688 112.948 219.497 113.104 219.341C113.26 219.185 113.451 219.107 113.676 219.107C113.893 219.107 114.075 219.185 114.222 219.341C114.378 219.497 114.456 219.688 114.456 219.913C114.456 220.138 114.378 220.329 114.222 220.485C114.075 220.641 113.893 220.719 113.676 220.719ZM114.248 221.876V229H113.065V221.876H114.248ZM117.448 219.38V229H116.265V219.38H117.448ZM121.986 229.117C121.44 229.117 120.95 229.026 120.517 228.844C120.084 228.653 119.741 228.393 119.49 228.064C119.239 227.726 119.1 227.34 119.074 226.907H120.296C120.331 227.262 120.495 227.553 120.79 227.778C121.093 228.003 121.488 228.116 121.973 228.116C122.424 228.116 122.779 228.016 123.039 227.817C123.299 227.618 123.429 227.366 123.429 227.063C123.429 226.751 123.29 226.521 123.013 226.374C122.736 226.218 122.307 226.066 121.726 225.919C121.197 225.78 120.764 225.642 120.426 225.503C120.097 225.356 119.811 225.143 119.568 224.866C119.334 224.58 119.217 224.207 119.217 223.748C119.217 223.384 119.325 223.05 119.542 222.747C119.759 222.444 120.066 222.205 120.465 222.032C120.864 221.85 121.319 221.759 121.83 221.759C122.619 221.759 123.256 221.958 123.741 222.357C124.226 222.756 124.486 223.302 124.521 223.995H123.338C123.312 223.622 123.16 223.323 122.883 223.098C122.614 222.873 122.25 222.76 121.791 222.76C121.366 222.76 121.028 222.851 120.777 223.033C120.526 223.215 120.4 223.453 120.4 223.748C120.4 223.982 120.474 224.177 120.621 224.333C120.777 224.48 120.968 224.602 121.193 224.697C121.427 224.784 121.748 224.883 122.155 224.996C122.666 225.135 123.082 225.273 123.403 225.412C123.724 225.542 123.997 225.741 124.222 226.01C124.456 226.279 124.577 226.63 124.586 227.063C124.586 227.453 124.478 227.804 124.261 228.116C124.044 228.428 123.737 228.675 123.338 228.857C122.948 229.03 122.497 229.117 121.986 229.117Z" fill="black"/>
<path d="M259.953 176.297H258.58C258.486 176.297 258.399 176.338 258.34 176.41C258.203 176.576 258.057 176.736 257.902 176.889C257.271 177.52 256.524 178.024 255.701 178.371C254.849 178.731 253.933 178.916 253.008 178.914C252.072 178.914 251.166 178.73 250.315 178.371C249.492 178.024 248.744 177.52 248.113 176.889C247.481 176.259 246.977 175.513 246.629 174.691C246.268 173.84 246.086 172.936 246.086 172C246.086 171.064 246.27 170.16 246.629 169.309C246.977 168.486 247.477 167.746 248.113 167.111C248.75 166.477 249.49 165.977 250.315 165.629C251.166 165.27 252.072 165.086 253.008 165.086C253.943 165.086 254.85 165.268 255.701 165.629C256.525 165.977 257.266 166.477 257.902 167.111C258.057 167.266 258.201 167.426 258.34 167.59C258.399 167.662 258.488 167.703 258.58 167.703H259.953C260.076 167.703 260.152 167.566 260.084 167.463C258.586 165.135 255.965 163.594 252.986 163.602C248.307 163.613 244.555 167.412 244.602 172.086C244.649 176.686 248.395 180.398 253.008 180.398C255.979 180.398 258.588 178.859 260.084 176.537C260.15 176.434 260.076 176.297 259.953 176.297ZM261.69 171.877L258.918 169.689C258.815 169.607 258.664 169.682 258.664 169.812V171.297H252.531C252.445 171.297 252.375 171.367 252.375 171.453V172.547C252.375 172.633 252.445 172.703 252.531 172.703H258.664V174.187C258.664 174.318 258.816 174.393 258.918 174.311L261.69 172.123C261.708 172.108 261.723 172.09 261.734 172.068C261.744 172.047 261.749 172.024 261.749 172C261.749 171.976 261.744 171.953 261.734 171.932C261.723 171.91 261.708 171.892 261.69 171.877Z" fill="black"/>
<path d="M87.1125 100.178C88.8127 99.6647 90.4002 99.553 91.875 99.8431C93.3498 100.133 94.6168 100.787 95.6761 101.804C96.746 102.801 97.5215 104.097 98.0025 105.689C98.4789 107.267 98.5498 108.775 98.2152 110.213C97.8959 111.647 97.1947 112.895 96.1116 113.957C95.0438 115.015 93.6674 115.798 91.9826 116.307L85.94 118.131L81.07 102.003L87.1125 100.178ZM90.7031 112.983C92.1889 112.534 93.2227 111.779 93.8047 110.718C94.3867 109.656 94.4534 108.382 94.0048 106.897C93.5562 105.411 92.7934 104.379 91.7166 103.802C90.6397 103.225 89.3584 103.16 87.8726 103.609L86.0116 104.171L88.8421 113.545L90.7031 112.983ZM112.72 102.825C112.831 103.192 112.924 103.582 112.998 103.994L104.107 106.679C104.408 107.457 104.846 107.994 105.42 108.288C106.004 108.563 106.626 108.601 107.284 108.402C108.265 108.106 108.821 107.487 108.955 106.544L113.136 105.282C113.176 106.189 113.014 107.065 112.651 107.91C112.303 108.75 111.766 109.489 111.039 110.127C110.312 110.764 109.428 111.24 108.387 111.554C107.131 111.933 105.931 112.003 104.789 111.763C103.647 111.523 102.65 110.988 101.798 110.159C100.946 109.33 100.319 108.249 99.9164 106.917C99.5141 105.584 99.4306 104.339 99.6661 103.182C99.9169 102.019 100.451 101.022 101.27 100.19C102.088 99.3582 103.133 98.7502 104.404 98.3663C105.645 97.9917 106.827 97.9191 107.949 98.1485C109.071 98.3779 110.046 98.8941 110.873 99.6972C111.716 100.496 112.332 101.538 112.72 102.825ZM108.387 103.005C108.184 102.331 107.792 101.864 107.212 101.605C106.633 101.345 105.998 101.32 105.309 101.528C104.65 101.727 104.149 102.087 103.805 102.609C103.477 103.126 103.365 103.753 103.471 104.49L108.387 103.005ZM129.237 90.9184C130.83 90.4374 132.239 90.5383 133.465 91.2211C134.706 91.8994 135.585 93.0962 136.103 94.8117L138.365 102.302L134.459 103.481L132.357 96.5195C132.107 95.6924 131.693 95.1238 131.115 94.8138C130.547 94.4837 129.881 94.4344 129.115 94.6656C128.349 94.8969 127.813 95.3093 127.508 95.9029C127.213 96.4766 127.19 97.177 127.44 98.0041L129.542 104.966L125.636 106.145L123.534 99.1835C123.285 98.3564 122.871 97.7878 122.292 97.4777C121.725 97.1477 121.058 97.0983 120.292 97.3296C119.526 97.5608 118.991 97.9733 118.685 98.5669C118.39 99.1406 118.368 99.841 118.618 100.668L120.72 107.63L116.791 108.816L112.92 95.9957L116.849 94.8094L117.334 96.4177C117.571 95.7613 117.964 95.1828 118.515 94.6823C119.061 94.1664 119.74 93.7858 120.552 93.5407C121.517 93.2493 122.437 93.1971 123.313 93.3841C124.203 93.5664 124.979 93.9757 125.639 94.6121C125.87 93.7734 126.302 93.0163 126.934 92.3408C127.565 91.6654 128.333 91.1912 129.237 90.9184ZM147.004 99.8938C145.748 100.273 144.533 100.347 143.361 100.116C142.203 99.8809 141.183 99.3532 140.3 98.5334C139.433 97.7089 138.798 96.6304 138.396 95.2978C137.998 93.9805 137.94 92.7362 138.221 91.5649C138.498 90.3782 139.061 89.3642 139.91 88.5228C140.759 87.6815 141.812 87.0712 143.068 86.692C144.324 86.3127 145.538 86.2385 146.711 86.4694C147.884 86.7002 148.914 87.2332 149.801 88.0684C150.684 88.8883 151.324 89.9568 151.722 91.2741C152.119 92.5913 152.172 93.8456 151.88 95.0369C151.599 96.2083 151.026 97.2169 150.161 98.0629C149.312 98.9042 148.26 99.5145 147.004 99.8938ZM145.977 96.4934C146.728 96.2668 147.28 95.7991 147.634 95.0905C148.004 94.3772 148.034 93.5074 147.724 92.4812C147.414 91.4549 146.915 90.7447 146.228 90.3506C145.556 89.9518 144.845 89.8657 144.094 90.0923C143.329 90.3236 142.776 90.7912 142.437 91.4953C142.094 92.184 142.079 93.0491 142.394 94.0907C142.703 95.1169 143.187 95.8317 143.843 96.2351C144.515 96.6339 145.227 96.72 145.977 96.4934ZM159.669 78.2697L164.539 94.3984L160.61 95.5847L155.74 79.456L159.669 78.2697ZM179.832 75.6411C181.425 75.1601 182.834 75.261 184.06 75.9439C185.301 76.6221 186.181 77.819 186.699 79.5345L188.96 87.0245L185.054 88.2038L182.952 81.2423C182.703 80.4152 182.289 79.8466 181.71 79.5365C181.143 79.2065 180.476 79.1571 179.71 79.3884C178.944 79.6196 178.409 80.032 178.103 80.6257C177.808 81.1994 177.786 81.8998 178.036 82.7269L180.138 89.6885L176.232 90.8678L174.13 83.9063C173.88 83.0791 173.466 82.5105 172.888 82.2005C172.32 81.8705 171.653 81.8211 170.887 82.0523C170.122 82.2836 169.586 82.696 169.281 83.2897C168.986 83.8633 168.963 84.5637 169.213 85.3909L171.315 92.3524L167.386 93.5387L163.515 80.7184L167.444 79.5321L167.93 81.1404C168.166 80.4841 168.56 79.9056 169.11 79.405C169.657 78.8891 170.336 78.5086 171.147 78.2635C172.112 77.9721 173.033 77.9199 173.908 78.1068C174.799 78.2891 175.574 78.6985 176.234 79.3348C176.466 78.4961 176.897 77.739 177.529 77.0636C178.161 76.3881 178.928 75.914 179.832 75.6411ZM188.984 79.9976C188.587 78.6803 188.482 77.4499 188.672 76.3063C188.877 75.158 189.327 74.1864 190.023 73.3913C190.719 72.5962 191.595 72.0391 192.652 71.72C193.556 71.4471 194.4 71.3927 195.185 71.5568C195.985 71.7163 196.66 72.0392 197.207 72.5256L196.659 70.7105L200.588 69.5242L204.459 82.3445L200.531 83.5308L199.982 81.7158C199.78 82.4288 199.39 83.0731 198.811 83.6489C198.248 84.22 197.515 84.6419 196.611 84.9148C195.57 85.2293 194.539 85.248 193.52 84.9709C192.495 84.6785 191.58 84.1108 190.774 83.2678C189.979 82.4049 189.382 81.3148 188.984 79.9976ZM198.595 77.1207C198.299 76.1404 197.79 75.4501 197.067 75.0499C196.36 74.6451 195.616 74.5606 194.835 74.7964C194.053 75.0323 193.473 75.5169 193.092 76.2501C192.723 76.9634 192.686 77.8102 192.982 78.7904C193.278 79.7707 193.782 80.471 194.494 80.8911C195.216 81.2914 195.968 81.3735 196.749 81.1377C197.531 80.9018 198.104 80.4196 198.469 79.691C198.849 78.9577 198.891 78.101 198.595 77.1207ZM208.246 67.0115C209.15 66.7386 209.994 66.6842 210.779 66.8483C211.579 67.0078 212.253 67.3307 212.801 67.8171L212.253 66.002L216.182 64.8157L220.046 77.6131C220.402 78.7925 220.486 79.9287 220.298 81.0217C220.13 82.1254 219.649 83.1063 218.855 83.9644C218.077 84.8179 216.975 85.4597 215.551 85.8898C213.651 86.4633 211.976 86.4763 210.523 85.9287C209.076 85.3964 208.036 84.3899 207.405 82.9091L211.288 81.7366C211.559 82.1898 211.965 82.4848 212.508 82.6218C213.056 82.7741 213.666 82.7485 214.34 82.545C215.152 82.2998 215.724 81.8682 216.055 81.25C216.406 80.6425 216.427 79.8256 216.117 78.7994L215.569 76.9843C215.367 77.6973 214.986 78.347 214.428 78.9334C213.865 79.5045 213.132 79.9265 212.228 80.1994C211.171 80.5185 210.133 80.5395 209.113 80.2624C208.089 79.97 207.174 79.4023 206.368 78.5593C205.572 77.6964 204.976 76.6063 204.578 75.289C204.18 73.9718 204.076 72.7414 204.266 71.5977C204.471 70.4495 204.921 69.4779 205.617 68.6828C206.313 67.8877 207.189 67.3306 208.246 67.0115ZM214.189 72.4122C213.893 71.4319 213.383 70.7416 212.661 70.3414C211.954 69.9365 211.209 69.8521 210.428 70.0879C209.647 70.3238 209.066 70.8083 208.686 71.5416C208.317 72.2549 208.28 73.1016 208.576 74.0819C208.872 75.0622 209.376 75.7624 210.087 76.1826C210.81 76.5828 211.562 76.665 212.343 76.4292C213.124 76.1933 213.697 75.711 214.062 74.9824C214.443 74.2492 214.485 73.3925 214.189 72.4122ZM232.982 66.5118C233.093 66.8794 233.186 67.2692 233.26 67.6814L224.369 70.3661C224.671 71.1441 225.108 71.6805 225.682 71.9752C226.266 72.2501 226.888 72.288 227.547 72.0891C228.527 71.7931 229.084 71.1738 229.217 70.231L233.398 68.9684C233.438 69.8756 233.277 70.7517 232.913 71.5968C232.565 72.4373 232.028 73.1761 231.301 73.8134C230.575 74.4507 229.69 74.9266 228.649 75.2411C227.393 75.6204 226.194 75.6899 225.052 75.4498C223.909 75.2097 222.912 74.6751 222.06 73.846C221.208 73.0169 220.581 71.9361 220.179 70.6035C219.776 69.2709 219.693 68.0259 219.928 66.8684C220.179 65.7063 220.714 64.7092 221.532 63.8771C222.351 63.045 223.395 62.4371 224.667 62.0532C225.907 61.6786 227.089 61.606 228.211 61.8354C229.333 62.0648 230.308 62.581 231.136 63.3841C231.978 64.1826 232.594 65.2251 232.982 66.5118ZM228.65 66.6919C228.446 66.018 228.054 65.5513 227.475 65.2918C226.895 65.0323 226.26 65.0066 225.571 65.2147C224.913 65.4136 224.411 65.7739 224.067 66.2955C223.739 66.8126 223.627 67.4396 223.733 68.1765L228.65 66.6919Z" fill="black" fill-opacity="0.07"/>
</svg>
